<svg width="1534" height="2201" viewBox="0 0 1534 2201" fill="none" xmlns="http://www.w3.org/2000/svg">
<path d="M133.333 266.667C206.971 266.667 266.667 206.971 266.667 133.333C266.667 59.6954 206.971 0 133.333 0C59.6954 0 0 59.6954 0 133.333C0 206.971 59.6954 266.667 133.333 266.667Z" fill="white" style="fill:white;fill-opacity:1;"/>
<path d="M200 866.699H646V968C605.653 1048.69 788.72 1022.59 753.016 1094C558.329 1483.38 420.003 1760.03 200 2200.03V866.699Z" fill="white" style="fill:white;fill-opacity:1;"/>
<path fill-rule="evenodd" clip-rule="evenodd" d="M866.667 200C1234.86 200 1533.33 498.477 1533.33 866.667C1533.33 1234.86 1234.86 1533.33 866.667 1533.33C498.477 1533.33 200 1234.86 200 866.667C200 498.477 498.477 200 866.667 200ZM866.65 666.699C756.193 666.699 666.65 756.242 666.65 866.699C666.65 977.156 756.193 1066.7 866.65 1066.7C977.107 1066.7 1066.65 977.156 1066.65 866.699C1066.65 756.242 977.107 666.699 866.65 666.699Z" fill="white" style="fill:white;fill-opacity:1;"/>
</svg>
